M48
; DRILL file {KiCad 9.0.3} date 2025-12-16T09:57:54+0100
; FORMAT={-:-/ absolute / metric / decimal}
; #@! TF.CreationDate,2025-12-16T09:57:54+01:00
; #@! TF.GenerationSoftware,Kicad,Pcbnew,9.0.3
; #@! TF.FileFunction,MixedPlating,1,2
FMAT,2
METRIC
; #@! TA.AperFunction,Plated,PTH,ViaDrill
T1C0.300
; #@! TA.AperFunction,Plated,PTH,ComponentDrill
T2C0.800
; #@! TA.AperFunction,Plated,PTH,ComponentDrill
T3C0.900
; #@! TA.AperFunction,Plated,PTH,ComponentDrill
T4C1.100
; #@! TA.AperFunction,Plated,PTH,ComponentDrill
T5C1.200
; #@! TA.AperFunction,Plated,PTH,ComponentDrill
T6C1.400
; #@! TA.AperFunction,Plated,PTH,ComponentDrill
T7C1.500
; #@! TA.AperFunction,NonPlated,NPTH,ComponentDrill
T8C5.500
%
G90
G05
T1
X105.438Y-95.5
X118.5Y-95.25
X120.585Y-97.335
X123.75Y-62.0
X124.0Y-72.5
X129.5Y-85.5
X132.25Y-58.25
X134.25Y-81.25
X134.665Y-80.415
X140.0Y-72.5
X141.25Y-68.5
X141.75Y-54.0
X141.75Y-60.25
X142.5Y-68.75
X143.0Y-84.25
X144.0Y-81.25
X146.71Y-94.46
X149.25Y-89.25
X149.25Y-92.25
X150.5Y-97.0
X151.75Y-49.0
X151.75Y-51.0
X152.75Y-81.25
X154.455Y-97.045
X154.75Y-83.25
X155.335Y-79.585
X155.75Y-88.25
X156.75Y-86.75
X157.25Y-82.5
X157.924Y-84.166
X158.75Y-82.5
X159.0Y-78.0
X159.25Y-62.0
X159.25Y-62.0
X159.25Y-76.25
X160.5Y-79.0
X162.25Y-97.4
X163.0Y-81.5
X163.0Y-96.75
X165.75Y-53.0
X165.75Y-67.54
X167.25Y-73.5
X168.5Y-50.5
X170.5Y-82.5
X170.5Y-102.25
X172.75Y-67.75
X182.75Y-69.25
X184.257Y-72.257
X185.25Y-60.0
X185.25Y-66.75
X185.25Y-73.0
X195.5Y-60.0
T2
X116.0Y-93.38
X116.0Y-95.92
X116.0Y-98.46
X116.0Y-101.0
X118.0Y-61.0
X118.0Y-69.0
X120.0Y-61.0
X120.0Y-69.0
X123.62Y-93.38
X123.62Y-95.92
X123.62Y-98.46
X123.62Y-101.0
X124.69Y-48.19
X124.69Y-50.73
X124.69Y-53.27
X124.69Y-55.81
X132.31Y-48.19
X132.31Y-50.73
X132.31Y-53.27
X132.31Y-55.81
X136.0Y-77.5
X138.0Y-77.5
X140.0Y-77.5
X145.13Y-86.8
X145.13Y-89.34
X145.13Y-91.88
X145.13Y-94.42
X145.13Y-96.96
X145.13Y-99.5
X145.13Y-102.04
X145.13Y-104.58
X152.75Y-86.8
X152.75Y-89.34
X152.75Y-91.88
X152.75Y-94.42
X152.75Y-96.96
X152.75Y-99.5
X152.75Y-102.04
X152.75Y-104.58
X155.69Y-49.11
X155.69Y-51.65
X155.69Y-54.19
X155.69Y-56.73
X155.69Y-59.27
X155.69Y-61.81
X155.69Y-64.35
X155.69Y-66.89
X159.44Y-86.86
X159.44Y-89.4
X159.44Y-91.94
X159.44Y-94.48
X159.44Y-97.02
X159.44Y-99.56
X159.44Y-102.1
X159.44Y-104.64
X163.31Y-49.11
X163.31Y-51.65
X163.31Y-54.19
X163.31Y-56.73
X163.31Y-59.27
X163.31Y-61.81
X163.31Y-64.35
X163.31Y-66.89
X167.06Y-86.86
X167.06Y-89.4
X167.06Y-91.94
X167.06Y-94.48
X167.06Y-97.02
X167.06Y-99.56
X167.06Y-102.1
X167.06Y-104.64
X184.42Y-80.5
X184.42Y-88.5
X184.42Y-96.0
X184.42Y-104.25
X187.532Y-62.982
X187.532Y-65.522
X187.532Y-68.062
X187.532Y-70.602
X187.532Y-73.142
X192.612Y-62.982
X192.612Y-65.522
X192.612Y-68.062
X192.612Y-70.602
X192.612Y-73.142
X194.58Y-80.5
X194.58Y-88.5
X194.58Y-96.0
X194.58Y-104.25
T3
X175.485Y-104.25
X175.71Y-80.5
X175.71Y-88.5
X175.71Y-96.0
X178.025Y-104.25
X178.25Y-80.5
X178.25Y-88.5
X178.25Y-96.0
T4
X105.0Y-79.0
X105.0Y-83.5
X111.5Y-79.0
X111.5Y-83.5
X129.05Y-62.75
X141.75Y-62.75
T5
X141.75Y-52.0
X144.75Y-52.0
T6
X108.117Y-67.25
X108.117Y-72.25
T7
X133.9Y-77.5
X142.1Y-77.5
T8
X108.0Y-53.0
X108.0Y-117.0
X192.0Y-53.0
X192.0Y-117.0
M30
